<?xml version="1.0" encoding="UTF-8" standalone="no"?>
<!DOCTYPE svg PUBLIC "-//W3C//DTD SVG 1.1//EN"
"http://www.w3.org/Graphics/SVG/1.1/DTD/svg11.dtd">
<svg viewBox="0 0 909 1286" version="1.1" xmlns="http://www.w3.org/2000/svg" xmlns:xlink="http://www.w3.org/1999/xlink">
<defs>
<style type="text/css"><![CDATA[
.g1_1{
}
]]></style>
</defs>
<path d="M136.4,280.5l636.6,0l0,-4.6l-636.6,0l0,4.6Z" class="g1_1" />
<path d="M136.4,411.6l636.6,0l0,-4.5l-636.6,0l0,4.5Z" class="g1_1" />
<path d="M663.9,449.5l109.1,0l0,-19.8l-109.1,0l0,19.8Z" class="g1_1" />
<path d="M136.4,628.1l636.6,0l0,-4.6l-636.6,0l0,4.6Z" class="g1_1" />
<path d="M663.9,670.1l109.1,0l0,-24l-109.1,0l0,24Z" class="g1_1" />
<path d="M136.4,883.9l636.6,0l0,-4.5l-636.6,0l0,4.5Z" class="g1_1" />
<path d="M136.4,1056.5l636.6,0l0,-4.6l-636.6,0l0,4.6Z" class="g1_1" />
</svg>